<?xml version="1.0" encoding="UTF-8" standalone="no"?><!DOCTYPE svg PUBLIC "-//W3C//DTD SVG 1.1//EN" "http://www.w3.org/Graphics/SVG/1.1/DTD/svg11.dtd"><!-- Generated by graphviz version 2.40.1 (20161225.0304)
 --><!-- Title: linkedlist Pages: 1 --><svg xmlns="http://www.w3.org/2000/svg" xmlns:xlink="http://www.w3.org/1999/xlink" width="338pt" height="264pt" viewBox="0.00 0.00 338.00 264.00">
<g id="graph0" class="graph" transform="scale(1 1) rotate(0) translate(4 260)">
<title>linkedlist</title>
<polygon fill="#ffffff" stroke="transparent" points="-4,4 -4,-260 334,-260 334,4 -4,4"/>
<!-- A -->
<g id="node1" class="node">
<title>A</title>
<polygon fill="none" stroke="#000000" points="0,-73.5 0,-109.5 69,-109.5 69,-73.5 0,-73.5"/>
<text text-anchor="middle" x="9.75" y="-87.3" font-family="Times,serif" font-size="14.00" fill="#000000"> </text>
<polyline fill="none" stroke="#000000" points="19.5,-73.5 19.5,-109.5 "/>
<text text-anchor="middle" x="34.5" y="-87.3" font-family="Times,serif" font-size="14.00" fill="#000000">03</text>
<polyline fill="none" stroke="#000000" points="49.5,-73.5 49.5,-109.5 "/>
<text text-anchor="middle" x="59.25" y="-87.3" font-family="Times,serif" font-size="14.00" fill="#000000"> </text>
</g>
<!-- null -->
<g id="node8" class="node">
<title>null</title>
<polygon fill="none" stroke="#ffffff" points="137.5,-.5 137.5,-36.5 191.5,-36.5 191.5,-.5 137.5,-.5"/>
<text text-anchor="middle" x="164.3906" y="-14.3" font-family="Times,serif" font-size="14.00" fill="#000000">null</text>
</g>
<!-- A&#45;&gt;null -->
<g id="edge7" class="edge">
<title>A:left-&gt;null</title>
<path fill="none" stroke="#000000" d="M9.5,-73.5C9.5,-48.6132 81.3668,-32.1173 127.2288,-24.1241"/>
<polygon fill="#000000" stroke="#000000" points="127.8648,-27.5664 137.1459,-22.4565 126.7039,-20.6633 127.8648,-27.5664"/>
</g>
<!-- A&#45;&gt;null -->
<g id="edge8" class="edge">
<title>A:right-&gt;null</title>
<path fill="none" stroke="#000000" d="M59.5,-73.5C59.5,-41.8845 97.3162,-28.4073 127.5594,-22.6841"/>
<polygon fill="#000000" stroke="#000000" points="128.1757,-26.1298 137.4599,-21.0255 127.019,-19.226 128.1757,-26.1298"/>
</g>
<!-- B -->
<g id="node2" class="node">
<title>B</title>
<polygon fill="none" stroke="#000000" points="62,-146.5 62,-182.5 131,-182.5 131,-146.5 62,-146.5"/>
<text text-anchor="middle" x="71.75" y="-160.3" font-family="Times,serif" font-size="14.00" fill="#000000"> </text>
<polyline fill="none" stroke="#000000" points="81.5,-146.5 81.5,-182.5 "/>
<text text-anchor="middle" x="96.5" y="-160.3" font-family="Times,serif" font-size="14.00" fill="#000000">18</text>
<polyline fill="none" stroke="#000000" points="111.5,-146.5 111.5,-182.5 "/>
<text text-anchor="middle" x="121.25" y="-160.3" font-family="Times,serif" font-size="14.00" fill="#000000"> </text>
</g>
<!-- B&#45;&gt;A -->
<g id="edge3" class="edge">
<title>B:c-&gt;A:center</title>
<path fill="none" stroke="#000000" d="M62.7249,-146.3667C62.6501,-146.2438 62.5751,-146.1215 62.5,-146 53.9345,-132.1407 41.24,-130.175 36.4363,-119.6023"/>
<polygon fill="#000000" stroke="#000000" points="39.8199,-118.6624 34.5,-109.5 32.945,-119.9801 39.8199,-118.6624"/>
</g>
<!-- C -->
<g id="node3" class="node">
<title>C</title>
<polygon fill="none" stroke="#000000" points="87,-73.5 87,-109.5 156,-109.5 156,-73.5 87,-73.5"/>
<text text-anchor="middle" x="96.75" y="-87.3" font-family="Times,serif" font-size="14.00" fill="#000000"> </text>
<polyline fill="none" stroke="#000000" points="106.5,-73.5 106.5,-109.5 "/>
<text text-anchor="middle" x="121.5" y="-87.3" font-family="Times,serif" font-size="14.00" fill="#000000">21</text>
<polyline fill="none" stroke="#000000" points="136.5,-73.5 136.5,-109.5 "/>
<text text-anchor="middle" x="146.25" y="-87.3" font-family="Times,serif" font-size="14.00" fill="#000000"> </text>
</g>
<!-- B&#45;&gt;C -->
<g id="edge4" class="edge">
<title>B:c-&gt;C:center</title>
<path fill="none" stroke="#000000" d="M121.5,-146.1667C121.5,-138.3965 121.5,-129.0133 121.5,-119.775"/>
<polygon fill="#000000" stroke="#000000" points="125.0001,-119.5 121.5,-109.5 118.0001,-119.5 125.0001,-119.5"/>
</g>
<!-- C&#45;&gt;null -->
<g id="edge9" class="edge">
<title>C:left-&gt;null</title>
<path fill="none" stroke="#000000" d="M96.5,-73.5C96.5,-54.9236 112.0308,-41.5411 128.2478,-32.6308"/>
<polygon fill="#000000" stroke="#000000" points="129.8558,-35.74 137.2336,-28.1362 126.7243,-29.4795 129.8558,-35.74"/>
</g>
<!-- C&#45;&gt;null -->
<g id="edge10" class="edge">
<title>C:right-&gt;null</title>
<path fill="none" stroke="#000000" d="M146.5,-73.5C146.5,-64.329 148.7885,-54.7054 151.7335,-46.1181"/>
<polygon fill="#000000" stroke="#000000" points="155.0703,-47.1923 155.3945,-36.6024 148.5371,-44.6787 155.0703,-47.1923"/>
</g>
<!-- D -->
<g id="node4" class="node">
<title>D</title>
<polygon fill="none" stroke="#000000" points="130,-219.5 130,-255.5 199,-255.5 199,-219.5 130,-219.5"/>
<text text-anchor="middle" x="139.75" y="-233.3" font-family="Times,serif" font-size="14.00" fill="#000000"> </text>
<polyline fill="none" stroke="#000000" points="149.5,-219.5 149.5,-255.5 "/>
<text text-anchor="middle" x="164.5" y="-233.3" font-family="Times,serif" font-size="14.00" fill="#000000">46</text>
<polyline fill="none" stroke="#000000" points="179.5,-219.5 179.5,-255.5 "/>
<text text-anchor="middle" x="189.25" y="-233.3" font-family="Times,serif" font-size="14.00" fill="#000000"> </text>
</g>
<!-- D&#45;&gt;B -->
<g id="edge1" class="edge">
<title>D:c-&gt;B:center</title>
<path fill="none" stroke="#000000" d="M130.7415,-219.3559C130.6613,-219.2364 130.5808,-219.1178 130.5,-219 120.3088,-204.1471 104.233,-203.9701 98.5628,-192.5344"/>
<polygon fill="#000000" stroke="#000000" points="101.942,-191.5904 96.5,-182.5 95.0854,-193 101.942,-191.5904"/>
</g>
<!-- F -->
<g id="node6" class="node">
<title>F</title>
<polygon fill="none" stroke="#000000" points="199,-146.5 199,-182.5 268,-182.5 268,-146.5 199,-146.5"/>
<text text-anchor="middle" x="208.75" y="-160.3" font-family="Times,serif" font-size="14.00" fill="#000000"> </text>
<polyline fill="none" stroke="#000000" points="218.5,-146.5 218.5,-182.5 "/>
<text text-anchor="middle" x="233.5" y="-160.3" font-family="Times,serif" font-size="14.00" fill="#000000">56</text>
<polyline fill="none" stroke="#000000" points="248.5,-146.5 248.5,-182.5 "/>
<text text-anchor="middle" x="258.25" y="-160.3" font-family="Times,serif" font-size="14.00" fill="#000000"> </text>
</g>
<!-- D&#45;&gt;F -->
<g id="edge2" class="edge">
<title>D:c-&gt;F:center</title>
<path fill="none" stroke="#000000" d="M198.256,-219.3542C198.337,-219.2353 198.4183,-219.1172 198.5,-219 208.9402,-204.0177 225.5206,-204.1231 231.3711,-192.6341"/>
<polygon fill="#000000" stroke="#000000" points="234.8694,-193.006 233.5,-182.5 228.0189,-191.5668 234.8694,-193.006"/>
</g>
<!-- E -->
<g id="node5" class="node">
<title>E</title>
<polygon fill="none" stroke="#000000" points="174,-73.5 174,-109.5 243,-109.5 243,-73.5 174,-73.5"/>
<text text-anchor="middle" x="183.75" y="-87.3" font-family="Times,serif" font-size="14.00" fill="#000000"> </text>
<polyline fill="none" stroke="#000000" points="193.5,-73.5 193.5,-109.5 "/>
<text text-anchor="middle" x="208.5" y="-87.3" font-family="Times,serif" font-size="14.00" fill="#000000">54</text>
<polyline fill="none" stroke="#000000" points="223.5,-73.5 223.5,-109.5 "/>
<text text-anchor="middle" x="233.25" y="-87.3" font-family="Times,serif" font-size="14.00" fill="#000000"> </text>
</g>
<!-- E&#45;&gt;null -->
<g id="edge11" class="edge">
<title>E:left-&gt;null</title>
<path fill="none" stroke="#000000" d="M183.5,-73.5C183.5,-64.3511 181.1222,-54.7922 178.049,-46.2583"/>
<polygon fill="#000000" stroke="#000000" points="181.2167,-44.7554 174.2226,-36.7971 174.7273,-47.3799 181.2167,-44.7554"/>
</g>
<!-- E&#45;&gt;null -->
<g id="edge12" class="edge">
<title>E:right-&gt;null</title>
<path fill="none" stroke="#000000" d="M233.5,-73.5C233.5,-54.6287 217.5227,-41.1837 200.9448,-32.3124"/>
<polygon fill="#000000" stroke="#000000" points="202.2941,-29.0767 191.7706,-27.8491 199.2317,-35.3713 202.2941,-29.0767"/>
</g>
<!-- F&#45;&gt;E -->
<g id="edge5" class="edge">
<title>F:c-&gt;E:center</title>
<path fill="none" stroke="#000000" d="M208.5,-146.1667C208.5,-138.3965 208.5,-129.0133 208.5,-119.775"/>
<polygon fill="#000000" stroke="#000000" points="212.0001,-119.5 208.5,-109.5 205.0001,-119.5 212.0001,-119.5"/>
</g>
<!-- G -->
<g id="node7" class="node">
<title>G</title>
<polygon fill="none" stroke="#000000" points="261,-73.5 261,-109.5 330,-109.5 330,-73.5 261,-73.5"/>
<text text-anchor="middle" x="270.75" y="-87.3" font-family="Times,serif" font-size="14.00" fill="#000000"> </text>
<polyline fill="none" stroke="#000000" points="280.5,-73.5 280.5,-109.5 "/>
<text text-anchor="middle" x="295.5" y="-87.3" font-family="Times,serif" font-size="14.00" fill="#000000">80</text>
<polyline fill="none" stroke="#000000" points="310.5,-73.5 310.5,-109.5 "/>
<text text-anchor="middle" x="320.25" y="-87.3" font-family="Times,serif" font-size="14.00" fill="#000000"> </text>
</g>
<!-- F&#45;&gt;G -->
<g id="edge6" class="edge">
<title>F:c-&gt;G:center</title>
<path fill="none" stroke="#000000" d="M267.2751,-146.3667C267.3499,-146.2438 267.4249,-146.1215 267.5,-146 276.0655,-132.1407 288.76,-130.175 293.5637,-119.6023"/>
<polygon fill="#000000" stroke="#000000" points="297.055,-119.9801 295.5,-109.5 290.1801,-118.6624 297.055,-119.9801"/>
</g>
<!-- G&#45;&gt;null -->
<g id="edge13" class="edge">
<title>G:left-&gt;null</title>
<path fill="none" stroke="#000000" d="M270.5,-73.5C270.5,-41.5549 232.1001,-28.1397 201.5248,-22.5214"/>
<polygon fill="#000000" stroke="#000000" points="201.9539,-19.0453 191.5225,-20.8994 200.8333,-25.955 201.9539,-19.0453"/>
</g>
<!-- G&#45;&gt;null -->
<g id="edge14" class="edge">
<title>G:right-&gt;null</title>
<path fill="none" stroke="#000000" d="M320.5,-73.5C320.5,-48.4038 247.7833,-31.9386 201.6429,-24.0171"/>
<polygon fill="#000000" stroke="#000000" points="202.1106,-20.547 191.6731,-22.3664 200.9671,-27.453 202.1106,-20.547"/>
</g>
</g>
</svg>
